<?xml version="1.0" standalone="no"?>
<!DOCTYPE svg PUBLIC "-//W3C//DTD SVG 20010904//EN"
 "http://www.w3.org/TR/2001/REC-SVG-20010904/DTD/svg10.dtd">
<svg version="1.0" xmlns="http://www.w3.org/2000/svg"
 width="48.000000pt" height="48.000000pt" viewBox="0 0 48.000000 48.000000"
 preserveAspectRatio="xMidYMid meet">

<g transform="translate(0.000000,48.000000) scale(0.100000,-0.100000)"
fill="#000000" stroke="none">
<path d="M66 402 c-3 -4 -1 -24 3 -43 4 -19 6 -60 3 -91 -3 -35 0 -58 7 -62 8
-5 11 20 11 86 0 60 4 98 12 106 9 9 7 12 -9 12 -12 0 -24 -4 -27 -8z"/>
<path d="M370 394 c19 -22 18 -273 -1 -285 -11 -6 -10 -9 3 -14 29 -11 40 4
33 44 -9 45 -9 178 0 231 6 38 6 40 -20 40 -24 0 -26 -2 -15 -16z"/>
<path d="M175 353 c-49 -28 -50 -29 -53 -80 -2 -34 3 -65 14 -88 16 -35 86
-105 104 -105 18 0 81 64 101 102 14 28 19 54 17 91 -3 49 -5 53 -43 74 -65
35 -85 36 -140 6z m107 -61 c18 -18 12 -65 -12 -84 -29 -23 -53 -23 -74 1 -17
19 -17 20 15 23 42 4 48 24 10 33 -22 5 -31 12 -31 27 0 18 5 20 41 15 23 -3
46 -10 51 -15z m-30 -130 c16 -7 16 -9 -2 -32 -15 -20 -20 -22 -34 -11 -37 31
-12 62 36 43z"/>
<path d="M77 180 c-4 -8 -8 -31 -9 -50 -3 -30 0 -35 20 -38 23 -4 29 7 13 23
-5 6 -11 26 -13 45 -3 23 -6 30 -11 20z"/>
</g>
</svg>
